M48
;Layer_Color=9474304
;FILE_FORMAT=2:4
INCH,TZ
;TYPE=PLATED
T1F00S00C0.0120
T2F00S00C0.0354
;TYPE=NON_PLATED
T3F00S00C0.0200
T4F00S00C0.0390
%
T01
X-840Y-3080
X-280Y-3230
X-165Y-2879
X660Y-3240
X1760Y-2830
X2720Y-1920
X3451Y-690
X4070Y-940
X4330Y-1100
X4320Y-640
X4245Y-155
X5860Y-30
Y-560
X2360Y420
X2260Y1760
X1930Y1470
X2620Y2310
X1060Y2710
X990Y3010
X230Y1760
X-710Y2020
X-290Y460
X-380Y230
X650Y570
X902Y-650
X1510Y-820
X126Y-1033
X255Y-1164
X-941Y-1383
X-1200Y-1675
X-1770Y-470
X-2060Y-110
X-1770Y870
T02
X3431Y730
X3089Y1670
T03
X3800Y-1050
X3870Y-690
X3920Y-330
X3940Y20
X3920Y370
X3890Y620
X3810Y980
X3740Y1230
T04
X4820Y-1000
X5620
X5220Y1000
M30
