%FSLAX24Y24*%
%MOIN*%
G70*
G01*
G75*
G04 Layer_Color=32896*
%ADD10C,0.0500*%
%ADD11C,0.0060*%
G04:AMPARAMS|DCode=12|XSize=19.7mil|YSize=23.6mil|CornerRadius=0mil|HoleSize=0mil|Usage=FLASHONLY|Rotation=225.000|XOffset=0mil|YOffset=0mil|HoleType=Round|Shape=Rectangle|*
%AMROTATEDRECTD12*
4,1,4,-0.0014,0.0153,0.0153,-0.0014,0.0014,-0.0153,-0.0153,0.0014,-0.0014,0.0153,0.0*
%
%ADD12ROTATEDRECTD12*%

G04:AMPARAMS|DCode=13|XSize=21.7mil|YSize=23.6mil|CornerRadius=0mil|HoleSize=0mil|Usage=FLASHONLY|Rotation=135.000|XOffset=0mil|YOffset=0mil|HoleType=Round|Shape=Rectangle|*
%AMROTATEDRECTD13*
4,1,4,0.0160,0.0007,-0.0007,-0.0160,-0.0160,-0.0007,0.0007,0.0160,0.0160,0.0007,0.0*
%
%ADD13ROTATEDRECTD13*%

%ADD14C,0.0394*%
G04:AMPARAMS|DCode=15|XSize=19.7mil|YSize=23.6mil|CornerRadius=0mil|HoleSize=0mil|Usage=FLASHONLY|Rotation=135.000|XOffset=0mil|YOffset=0mil|HoleType=Round|Shape=Rectangle|*
%AMROTATEDRECTD15*
4,1,4,0.0153,0.0014,-0.0014,-0.0153,-0.0153,-0.0014,0.0014,0.0153,0.0153,0.0014,0.0*
%
%ADD15ROTATEDRECTD15*%

%ADD16R,0.0236X0.0197*%
%ADD17C,0.0310*%
G04:AMPARAMS|DCode=18|XSize=39.4mil|YSize=70.9mil|CornerRadius=0mil|HoleSize=0mil|Usage=FLASHONLY|Rotation=45.000|XOffset=0mil|YOffset=0mil|HoleType=Round|Shape=Rectangle|*
%AMROTATEDRECTD18*
4,1,4,0.0111,-0.0390,-0.0390,0.0111,-0.0111,0.0390,0.0390,-0.0111,0.0111,-0.0390,0.0*
%
%ADD18ROTATEDRECTD18*%

G04:AMPARAMS|DCode=19|XSize=47.2mil|YSize=43.3mil|CornerRadius=0mil|HoleSize=0mil|Usage=FLASHONLY|Rotation=45.000|XOffset=0mil|YOffset=0mil|HoleType=Round|Shape=Rectangle|*
%AMROTATEDRECTD19*
4,1,4,-0.0014,-0.0320,-0.0320,-0.0014,0.0014,0.0320,0.0320,0.0014,-0.0014,-0.0320,0.0*
%
%ADD19ROTATEDRECTD19*%

%ADD20C,0.0071*%
%ADD21P,0.0251X4X65.0*%
%ADD22R,0.0256X0.0197*%
%ADD23C,0.0087*%
G04:AMPARAMS|DCode=24|XSize=25.6mil|YSize=27.6mil|CornerRadius=0mil|HoleSize=0mil|Usage=FLASHONLY|Rotation=110.000|XOffset=0mil|YOffset=0mil|HoleType=Round|Shape=Rectangle|*
%AMROTATEDRECTD24*
4,1,4,0.0173,-0.0073,-0.0086,-0.0167,-0.0173,0.0073,0.0086,0.0167,0.0173,-0.0073,0.0*
%
%ADD24ROTATEDRECTD24*%

G04:AMPARAMS|DCode=25|XSize=25.6mil|YSize=27.6mil|CornerRadius=0mil|HoleSize=0mil|Usage=FLASHONLY|Rotation=20.000|XOffset=0mil|YOffset=0mil|HoleType=Round|Shape=Rectangle|*
%AMROTATEDRECTD25*
4,1,4,-0.0073,-0.0173,-0.0167,0.0086,0.0073,0.0173,0.0167,-0.0086,-0.0073,-0.0173,0.0*
%
%ADD25ROTATEDRECTD25*%

%ADD26C,0.0100*%
%ADD27C,0.0150*%
%ADD28C,0.0050*%
%ADD29C,0.0080*%
%ADD30C,0.0090*%
%ADD31C,0.0200*%
%ADD32P,0.0835X4X335.0*%
%ADD33C,0.0591*%
%ADD34C,0.0390*%
%ADD35C,0.0240*%
%ADD36C,0.0100*%
%ADD37P,0.1771X4X290.0*%
%ADD38C,0.0059*%
%ADD39C,0.0079*%
%ADD40C,0.0039*%
%ADD41C,0.0070*%
G04:AMPARAMS|DCode=42|XSize=25.7mil|YSize=29.6mil|CornerRadius=0mil|HoleSize=0mil|Usage=FLASHONLY|Rotation=225.000|XOffset=0mil|YOffset=0mil|HoleType=Round|Shape=Rectangle|*
%AMROTATEDRECTD42*
4,1,4,-0.0014,0.0196,0.0196,-0.0014,0.0014,-0.0196,-0.0196,0.0014,-0.0014,0.0196,0.0*
%
%ADD42ROTATEDRECTD42*%

G04:AMPARAMS|DCode=43|XSize=27.7mil|YSize=29.6mil|CornerRadius=0mil|HoleSize=0mil|Usage=FLASHONLY|Rotation=135.000|XOffset=0mil|YOffset=0mil|HoleType=Round|Shape=Rectangle|*
%AMROTATEDRECTD43*
4,1,4,0.0203,0.0007,-0.0007,-0.0203,-0.0203,-0.0007,0.0007,0.0203,0.0203,0.0007,0.0*
%
%ADD43ROTATEDRECTD43*%

%ADD44C,0.0454*%
G04:AMPARAMS|DCode=45|XSize=25.7mil|YSize=29.6mil|CornerRadius=0mil|HoleSize=0mil|Usage=FLASHONLY|Rotation=135.000|XOffset=0mil|YOffset=0mil|HoleType=Round|Shape=Rectangle|*
%AMROTATEDRECTD45*
4,1,4,0.0196,0.0014,-0.0014,-0.0196,-0.0196,-0.0014,0.0014,0.0196,0.0196,0.0014,0.0*
%
%ADD45ROTATEDRECTD45*%

%ADD46R,0.0296X0.0257*%
%ADD47C,0.0370*%
G04:AMPARAMS|DCode=48|XSize=45.4mil|YSize=76.9mil|CornerRadius=0mil|HoleSize=0mil|Usage=FLASHONLY|Rotation=45.000|XOffset=0mil|YOffset=0mil|HoleType=Round|Shape=Rectangle|*
%AMROTATEDRECTD48*
4,1,4,0.0111,-0.0432,-0.0432,0.0111,-0.0111,0.0432,0.0432,-0.0111,0.0111,-0.0432,0.0*
%
%ADD48ROTATEDRECTD48*%

G04:AMPARAMS|DCode=49|XSize=53.2mil|YSize=49.3mil|CornerRadius=0mil|HoleSize=0mil|Usage=FLASHONLY|Rotation=45.000|XOffset=0mil|YOffset=0mil|HoleType=Round|Shape=Rectangle|*
%AMROTATEDRECTD49*
4,1,4,-0.0014,-0.0363,-0.0363,-0.0014,0.0014,0.0363,0.0363,0.0014,-0.0014,-0.0363,0.0*
%
%ADD49ROTATEDRECTD49*%

%ADD50C,0.0131*%
%ADD51C,0.0151*%
%ADD52P,0.0335X4X65.0*%
%ADD53R,0.0316X0.0257*%
%ADD54C,0.0126*%
G04:AMPARAMS|DCode=55|XSize=31.6mil|YSize=33.6mil|CornerRadius=0mil|HoleSize=0mil|Usage=FLASHONLY|Rotation=110.000|XOffset=0mil|YOffset=0mil|HoleType=Round|Shape=Rectangle|*
%AMROTATEDRECTD55*
4,1,4,0.0212,-0.0091,-0.0104,-0.0206,-0.0212,0.0091,0.0104,0.0206,0.0212,-0.0091,0.0*
%
%ADD55ROTATEDRECTD55*%

G04:AMPARAMS|DCode=56|XSize=31.6mil|YSize=33.6mil|CornerRadius=0mil|HoleSize=0mil|Usage=FLASHONLY|Rotation=20.000|XOffset=0mil|YOffset=0mil|HoleType=Round|Shape=Rectangle|*
%AMROTATEDRECTD56*
4,1,4,-0.0091,-0.0212,-0.0206,0.0104,0.0091,0.0212,0.0206,-0.0104,-0.0091,-0.0212,0.0*
%
%ADD56ROTATEDRECTD56*%

%ADD57P,0.0920X4X335.0*%
%ADD58C,0.0651*%
%ADD59C,0.5118*%
%ADD60P,0.1855X4X290.0*%
D11*
X-2986Y855D02*
X-3220Y990D01*
X-3153Y1107D01*
X-3091Y1123D01*
X-3052Y1101D01*
X-3036Y1039D01*
X-3103Y923D01*
X-3036Y1039D01*
X-2974Y1056D01*
X-2935Y1033D01*
X-2919Y972D01*
X-2986Y855D01*
X-2907Y1173D02*
X-2862Y1251D01*
X-2878Y1312D01*
X-2995Y1380D01*
X-3063Y1263D01*
X-3046Y1201D01*
X-2985Y1218D01*
X-2917Y1335D01*
X-2733Y1384D02*
X-2772Y1406D01*
X-2794Y1368D01*
X-2749Y1445D01*
X-2772Y1406D01*
X-2889Y1474D01*
X-2905Y1535D01*
X-2838Y1652D02*
X-2793Y1730D01*
X-2815Y1691D01*
X-2581Y1556D01*
X-2643Y1540D01*
D26*
X-3870Y-485D02*
G03*
X-2116Y3276I-2380J3399D01*
G01*
X-1010Y4135D02*
G03*
X-2128Y3353I-333J-714D01*
G01*
X-3936Y-525D02*
G03*
X-3817Y-1884I452J-645D01*
G01*
X2419Y-2935D02*
X3804Y33D01*
X183Y-3749D02*
X2419Y-2935D01*
X2989Y2270D02*
X3804Y33D01*
X-3936Y-525D02*
X-3870Y-485D01*
X-2128Y3353D02*
X-2116Y3276D01*
X-3817Y-1884D02*
X183Y-3749D01*
X-1010Y4135D02*
X2989Y2270D01*
M02*
