%FSLAX24Y24*%
%MOIN*%
G70*
G01*
G75*
G04 Layer_Physical_Order=1*
G04 Layer_Color=255*
%ADD10C,0.0500*%
%ADD11C,0.0060*%
G04:AMPARAMS|DCode=12|XSize=19.7mil|YSize=23.6mil|CornerRadius=0mil|HoleSize=0mil|Usage=FLASHONLY|Rotation=225.000|XOffset=0mil|YOffset=0mil|HoleType=Round|Shape=Rectangle|*
%AMROTATEDRECTD12*
4,1,4,-0.0014,0.0153,0.0153,-0.0014,0.0014,-0.0153,-0.0153,0.0014,-0.0014,0.0153,0.0*
%
%ADD12ROTATEDRECTD12*%

G04:AMPARAMS|DCode=13|XSize=21.7mil|YSize=23.6mil|CornerRadius=0mil|HoleSize=0mil|Usage=FLASHONLY|Rotation=135.000|XOffset=0mil|YOffset=0mil|HoleType=Round|Shape=Rectangle|*
%AMROTATEDRECTD13*
4,1,4,0.0160,0.0007,-0.0007,-0.0160,-0.0160,-0.0007,0.0007,0.0160,0.0160,0.0007,0.0*
%
%ADD13ROTATEDRECTD13*%

%ADD14C,0.0394*%
G04:AMPARAMS|DCode=15|XSize=19.7mil|YSize=23.6mil|CornerRadius=0mil|HoleSize=0mil|Usage=FLASHONLY|Rotation=135.000|XOffset=0mil|YOffset=0mil|HoleType=Round|Shape=Rectangle|*
%AMROTATEDRECTD15*
4,1,4,0.0153,0.0014,-0.0014,-0.0153,-0.0153,-0.0014,0.0014,0.0153,0.0153,0.0014,0.0*
%
%ADD15ROTATEDRECTD15*%

%ADD16R,0.0236X0.0197*%
%ADD17C,0.0310*%
G04:AMPARAMS|DCode=18|XSize=39.4mil|YSize=70.9mil|CornerRadius=0mil|HoleSize=0mil|Usage=FLASHONLY|Rotation=45.000|XOffset=0mil|YOffset=0mil|HoleType=Round|Shape=Rectangle|*
%AMROTATEDRECTD18*
4,1,4,0.0111,-0.0390,-0.0390,0.0111,-0.0111,0.0390,0.0390,-0.0111,0.0111,-0.0390,0.0*
%
%ADD18ROTATEDRECTD18*%

G04:AMPARAMS|DCode=19|XSize=47.2mil|YSize=43.3mil|CornerRadius=0mil|HoleSize=0mil|Usage=FLASHONLY|Rotation=45.000|XOffset=0mil|YOffset=0mil|HoleType=Round|Shape=Rectangle|*
%AMROTATEDRECTD19*
4,1,4,-0.0014,-0.0320,-0.0320,-0.0014,0.0014,0.0320,0.0320,0.0014,-0.0014,-0.0320,0.0*
%
%ADD19ROTATEDRECTD19*%

%ADD20C,0.0071*%
%ADD21P,0.0251X4X65.0*%
%ADD22R,0.0256X0.0197*%
%ADD23C,0.0087*%
G04:AMPARAMS|DCode=24|XSize=25.6mil|YSize=27.6mil|CornerRadius=0mil|HoleSize=0mil|Usage=FLASHONLY|Rotation=110.000|XOffset=0mil|YOffset=0mil|HoleType=Round|Shape=Rectangle|*
%AMROTATEDRECTD24*
4,1,4,0.0173,-0.0073,-0.0086,-0.0167,-0.0173,0.0073,0.0086,0.0167,0.0173,-0.0073,0.0*
%
%ADD24ROTATEDRECTD24*%

G04:AMPARAMS|DCode=25|XSize=25.6mil|YSize=27.6mil|CornerRadius=0mil|HoleSize=0mil|Usage=FLASHONLY|Rotation=20.000|XOffset=0mil|YOffset=0mil|HoleType=Round|Shape=Rectangle|*
%AMROTATEDRECTD25*
4,1,4,-0.0073,-0.0173,-0.0167,0.0086,0.0073,0.0173,0.0167,-0.0086,-0.0073,-0.0173,0.0*
%
%ADD25ROTATEDRECTD25*%

%ADD26C,0.0100*%
%ADD27C,0.0150*%
%ADD28C,0.0050*%
%ADD29C,0.0080*%
%ADD30C,0.0090*%
%ADD31C,0.0200*%
%ADD32P,0.0835X4X335.0*%
%ADD33C,0.0591*%
%ADD34C,0.0390*%
%ADD35C,0.0240*%
G36*
X937Y-516D02*
X938Y-522D01*
X950Y-550D01*
X965Y-578D01*
X983Y-603D01*
X1004Y-626D01*
D01*
X1004Y-626D01*
X1004Y-626D01*
X1004Y-626D01*
X1004D01*
X1028Y-653D01*
X880Y-800D01*
X869Y-814D01*
X865Y-817D01*
X809Y-803D01*
X811Y-786D01*
Y-581D01*
X888Y-503D01*
X937Y-516D01*
D02*
G37*
G36*
X1530Y-699D02*
X1533Y-702D01*
X1533Y-702D01*
X1533Y-702D01*
X1686Y-855D01*
X1667Y-902D01*
X1529D01*
Y-922D01*
X1420D01*
Y-757D01*
X1436Y-741D01*
X1507Y-698D01*
X1530Y-699D01*
D02*
G37*
G36*
X-279Y826D02*
X-263Y842D01*
X-193Y772D01*
Y281D01*
X-365Y109D01*
X-387Y131D01*
X-541Y-23D01*
X-612Y48D01*
X-458Y202D01*
X-562Y307D01*
X-252Y617D01*
X-370Y735D01*
X-350Y755D01*
X-504Y910D01*
X-433Y980D01*
X-279Y826D01*
D02*
G37*
G36*
X828Y-3317D02*
X738Y-3350D01*
X819Y-3573D01*
X772Y-3590D01*
X789Y-3637D01*
X575Y-3715D01*
X585Y-3743D01*
X559Y-3785D01*
X480Y-3797D01*
X360Y-3810D01*
X240Y-3819D01*
X120Y-3825D01*
X0Y-3827D01*
X-120Y-3825D01*
X-240Y-3819D01*
X-360Y-3810D01*
X-480Y-3797D01*
X-501Y-3794D01*
X-510Y-3745D01*
X-492Y-3735D01*
X-467Y-3717D01*
X-444Y-3696D01*
X-423Y-3673D01*
X-405Y-3648D01*
X-390Y-3620D01*
X-384Y-3605D01*
X-260D01*
X-244Y-3604D01*
X-227Y-3600D01*
X-212Y-3594D01*
X-198Y-3585D01*
X-186Y-3574D01*
X317Y-3072D01*
X366Y-3082D01*
X395Y-3163D01*
X728Y-3042D01*
X828Y-3317D01*
D02*
G37*
G36*
X-641Y-2718D02*
X-619Y-2696D01*
X-591Y-2724D01*
X-451Y-2584D01*
X-416Y-2619D01*
X-380Y-2584D01*
X-226Y-2738D01*
X-159Y-2672D01*
X-66Y-2764D01*
X74Y-2624D01*
X145Y-2695D01*
X4Y-2835D01*
X123Y-2954D01*
X123D01*
Y-2954D01*
Y-2968D01*
X-304Y-3395D01*
X-384D01*
X-390Y-3380D01*
X-405Y-3352D01*
X-423Y-3327D01*
X-444Y-3304D01*
X-467Y-3283D01*
X-492Y-3265D01*
X-520Y-3250D01*
X-548Y-3238D01*
X-578Y-3230D01*
X-609Y-3224D01*
X-640Y-3223D01*
X-671Y-3224D01*
X-702Y-3230D01*
X-732Y-3238D01*
X-760Y-3250D01*
X-788Y-3265D01*
X-813Y-3283D01*
X-836Y-3304D01*
X-857Y-3327D01*
X-875Y-3352D01*
X-890Y-3380D01*
X-902Y-3408D01*
X-910Y-3438D01*
X-916Y-3469D01*
X-917Y-3495D01*
X-932Y-3501D01*
X-973Y-3503D01*
X-1432Y-3045D01*
X-1049Y-2662D01*
X-1006Y-2704D01*
X-866Y-2564D01*
X-831Y-2599D01*
X-795Y-2564D01*
X-641Y-2718D01*
D02*
G37*
G36*
X1974Y-2653D02*
X1970Y-2668D01*
X1964Y-2699D01*
X1963Y-2730D01*
X1964Y-2761D01*
X1970Y-2792D01*
X1978Y-2822D01*
X1990Y-2850D01*
X1992Y-2853D01*
X1974Y-2900D01*
X1829Y-2952D01*
X1893Y-3129D01*
X2061Y-3068D01*
X2031Y-2987D01*
X2065Y-2949D01*
X2068Y-2947D01*
X2092Y-2965D01*
X2120Y-2980D01*
X2148Y-2992D01*
X2178Y-3000D01*
X2209Y-3006D01*
X2240Y-3007D01*
X2271Y-3006D01*
X2294Y-3002D01*
X2314Y-3048D01*
X2249Y-3096D01*
X2151Y-3165D01*
X2140Y-3172D01*
X2102Y-3159D01*
X1881Y-3240D01*
X1864Y-3193D01*
X1817Y-3210D01*
X1735Y-2986D01*
X1678Y-3007D01*
X1633Y-2986D01*
X1557Y-2778D01*
X1578Y-2732D01*
X1878Y-2623D01*
X1878Y-2623D01*
Y-2623D01*
X1919Y-2597D01*
X1974Y-2653D01*
D02*
G37*
G36*
X3150Y-1422D02*
Y-1701D01*
X3100Y-1790D01*
X3040Y-1890D01*
X2977Y-1989D01*
X2946Y-2033D01*
X2355D01*
X2350Y-2020D01*
X2335Y-1992D01*
X2317Y-1967D01*
X2296Y-1944D01*
X2273Y-1923D01*
X2248Y-1905D01*
X2220Y-1890D01*
X2261Y-1792D01*
X2629Y-1425D01*
X2746D01*
X2914Y-1592D01*
X3104Y-1402D01*
X3150Y-1422D01*
D02*
G37*
G36*
X-1169Y-1195D02*
X-1082Y-1108D01*
X-1032D01*
X-884Y-1257D01*
X-868Y-1270D01*
X-851Y-1281D01*
X-832Y-1288D01*
X-815Y-1293D01*
X-814Y-1297D01*
X-809Y-1318D01*
X-801Y-1337D01*
X-790Y-1356D01*
X-776Y-1372D01*
X-776Y-1372D01*
X-774Y-1422D01*
X-815Y-1463D01*
X-822Y-1467D01*
X-837Y-1480D01*
X-850Y-1495D01*
X-860Y-1511D01*
X-867Y-1529D01*
X-872Y-1548D01*
X-873Y-1563D01*
X-1013Y-1703D01*
X-1028Y-1702D01*
X-1050Y-1704D01*
X-1072Y-1709D01*
X-1093Y-1718D01*
X-1112Y-1730D01*
X-1130Y-1744D01*
X-1145Y-1745D01*
X-1160Y-1730D01*
X-1347Y-1917D01*
X-1363Y-1917D01*
X-1376Y-1905D01*
X-1376D01*
X-1376Y-1905D01*
X-1376Y-1905D01*
X-1382Y-1902D01*
X-1455Y-1846D01*
X-1527Y-1787D01*
X-1596Y-1726D01*
X-1662Y-1662D01*
X-1726Y-1596D01*
X-1787Y-1527D01*
X-1846Y-1455D01*
X-1902Y-1382D01*
X-1954Y-1306D01*
X-2004Y-1228D01*
X-2051Y-1149D01*
X-2086Y-1082D01*
X-2061Y-1039D01*
X-1325D01*
X-1169Y-1195D01*
D02*
G37*
G36*
X740Y1444D02*
Y573D01*
X707Y540D01*
Y540D01*
X544Y377D01*
X498Y396D01*
Y1112D01*
X550Y1164D01*
X561Y1177D01*
X570Y1192D01*
X573Y1198D01*
X577Y1208D01*
X581Y1225D01*
X582Y1242D01*
Y1352D01*
X693Y1463D01*
X740Y1444D01*
D02*
G37*
G36*
X0Y2231D02*
X93D01*
X543Y1781D01*
X284Y1521D01*
X272Y1508D01*
X269Y1502D01*
X248Y1500D01*
X193Y1523D01*
X-137Y1852D01*
X-126Y1864D01*
X-266Y2004D01*
X-195Y2075D01*
X-55Y1934D01*
X64Y2053D01*
X-68Y2185D01*
X-50Y2231D01*
X-13Y2232D01*
X0Y2231D01*
D02*
G37*
G36*
X-404Y2147D02*
X-525Y2025D01*
X-511Y2011D01*
X-728Y1794D01*
X-777Y1804D01*
X-780Y1810D01*
X-795Y1838D01*
X-813Y1863D01*
X-834Y1886D01*
X-857Y1907D01*
X-882Y1925D01*
X-910Y1940D01*
X-938Y1952D01*
X-967Y1960D01*
X-968Y1964D01*
X-959Y2016D01*
X-897Y2044D01*
X-812Y2080D01*
X-725Y2112D01*
X-637Y2140D01*
X-548Y2164D01*
X-458Y2185D01*
X-427Y2191D01*
X-404Y2147D01*
D02*
G37*
G36*
X868Y2851D02*
X890Y2836D01*
X913Y2825D01*
X938Y2816D01*
X964Y2811D01*
X990Y2810D01*
X1016Y2811D01*
X1042Y2816D01*
X1067Y2825D01*
X1071Y2827D01*
X1260Y2638D01*
Y2341D01*
X1225Y2307D01*
X1011Y2521D01*
X1025Y2535D01*
X906Y2654D01*
X766Y2514D01*
X695Y2585D01*
X836Y2725D01*
X781Y2779D01*
X860Y2858D01*
X868Y2851D01*
D02*
G37*
G36*
X2461Y2188D02*
X2478Y2168D01*
X2480Y2167D01*
Y1961D01*
X2468Y1959D01*
X2468D01*
X2468Y1959D01*
X2292Y1895D01*
X2370Y1681D01*
X2323Y1664D01*
X2340Y1617D01*
X2116Y1535D01*
X2137Y1478D01*
X2116Y1433D01*
X1908Y1357D01*
X1862Y1378D01*
X1753Y1678D01*
X1753Y1678D01*
X1753D01*
X1727Y1719D01*
X1931Y1923D01*
X2095D01*
X2112Y1924D01*
X2129Y1928D01*
X2145Y1935D01*
X2160Y1944D01*
X2173Y1955D01*
X2408Y2190D01*
X2460D01*
X2461Y2188D01*
D02*
G37*
G36*
X-1715Y1357D02*
X-1710Y1328D01*
X-1702Y1298D01*
X-1690Y1270D01*
X-1675Y1242D01*
X-1657Y1217D01*
X-1636Y1194D01*
X-1613Y1173D01*
X-1588Y1155D01*
X-1560Y1140D01*
X-1532Y1128D01*
X-1502Y1120D01*
X-1471Y1114D01*
X-1465Y1114D01*
X-1448Y1067D01*
X-1537Y978D01*
X-1537Y978D01*
D01*
X-1560D01*
X-1563Y981D01*
X-1765Y778D01*
X-1541Y554D01*
X-1612Y484D01*
X-1836Y708D01*
X-2038Y505D01*
X-1920Y387D01*
X-1948Y359D01*
X-1793Y205D01*
X-1829Y170D01*
X-1793Y134D01*
X-1934Y-6D01*
X-1815Y-125D01*
X-1801Y-111D01*
X-1536Y-375D01*
X-1536D01*
Y-375D01*
Y-417D01*
X-1580Y-461D01*
X-1426Y-615D01*
X-1496Y-686D01*
X-1651Y-532D01*
X-1756Y-637D01*
X-1620Y-772D01*
X-1639Y-819D01*
X-2064D01*
X-2085Y-798D01*
X-2112Y-725D01*
X-2140Y-637D01*
X-2164Y-548D01*
X-2185Y-458D01*
X-2202Y-367D01*
X-2215Y-276D01*
X-2225Y-184D01*
X-2231Y-92D01*
X-2233Y0D01*
X-2231Y92D01*
X-2225Y184D01*
X-2215Y276D01*
X-2202Y367D01*
X-2185Y458D01*
X-2164Y548D01*
X-2140Y637D01*
X-2112Y725D01*
X-2080Y812D01*
X-2044Y897D01*
X-2006Y980D01*
X-1963Y1063D01*
X-1918Y1143D01*
X-1869Y1221D01*
X-1817Y1297D01*
X-1764Y1368D01*
X-1715Y1357D01*
D02*
G37*
G36*
X3044Y875D02*
X3075Y850D01*
X3066Y819D01*
X3059Y783D01*
X3056Y747D01*
X3056Y710D01*
X3060Y673D01*
X3067Y637D01*
X3078Y602D01*
X3092Y568D01*
X3110Y535D01*
X3130Y505D01*
X3150Y481D01*
Y398D01*
X3029D01*
X3021Y439D01*
Y439D01*
X3021Y439D01*
X2961Y607D01*
X2737Y525D01*
X2514Y444D01*
X2564Y305D01*
X2526Y266D01*
X2267D01*
X2172Y528D01*
X2447Y628D01*
X2480Y538D01*
X2703Y619D01*
X2926Y701D01*
X2866Y868D01*
X2866D01*
X2854Y873D01*
X2845Y923D01*
X2866Y943D01*
X3044Y875D01*
D02*
G37*
G36*
X2620Y2790D02*
X2706Y2706D01*
X2790Y2620D01*
X2871Y2531D01*
X2949Y2439D01*
X3024Y2346D01*
X3096Y2249D01*
X3150Y2173D01*
Y2113D01*
X3001Y2058D01*
X3136Y1687D01*
X3042Y1653D01*
X2907Y2024D01*
X2782Y1979D01*
X2741Y2007D01*
Y2150D01*
X2742Y2151D01*
X2762Y2168D01*
X2779Y2188D01*
X2794Y2210D01*
X2805Y2233D01*
X2814Y2258D01*
X2819Y2284D01*
X2820Y2310D01*
X2819Y2336D01*
X2814Y2362D01*
X2805Y2387D01*
X2794Y2410D01*
X2779Y2432D01*
X2762Y2452D01*
X2742Y2469D01*
X2720Y2484D01*
X2697Y2495D01*
X2672Y2504D01*
X2646Y2509D01*
X2620Y2510D01*
X2594Y2509D01*
X2568Y2504D01*
X2543Y2495D01*
X2520Y2484D01*
X2498Y2469D01*
X2478Y2452D01*
X2461Y2432D01*
X2447Y2411D01*
X2362D01*
X2345Y2410D01*
X2328Y2405D01*
X2312Y2399D01*
X2297Y2390D01*
X2291Y2384D01*
X2243Y2398D01*
X2242Y2402D01*
X2230Y2430D01*
X2216Y2456D01*
X2244Y2497D01*
X2259Y2494D01*
X2290Y2493D01*
X2321Y2494D01*
X2352Y2500D01*
X2382Y2508D01*
X2410Y2520D01*
X2438Y2535D01*
X2463Y2553D01*
X2486Y2574D01*
X2507Y2597D01*
X2525Y2622D01*
X2540Y2650D01*
X2552Y2678D01*
X2560Y2708D01*
X2566Y2739D01*
X2567Y2770D01*
X2567Y2775D01*
X2612Y2797D01*
X2620Y2790D01*
D02*
G37*
%LPC*%
G36*
X-416Y-2690D02*
X-520Y-2795D01*
X-402Y-2914D01*
X-297Y-2809D01*
X-416Y-2690D01*
D02*
G37*
G36*
X644Y-3384D02*
X477Y-3445D01*
X541Y-3621D01*
X708Y-3560D01*
X644Y-3384D01*
D02*
G37*
G36*
X2198Y1861D02*
X2021Y1796D01*
X2082Y1629D01*
X2259Y1693D01*
X2198Y1861D01*
D02*
G37*
G36*
X-2018Y289D02*
X-2123Y184D01*
X-2004Y65D01*
X-1899Y170D01*
X-2018Y289D01*
D02*
G37*
G36*
X-831Y-2670D02*
X-936Y-2775D01*
X-817Y-2894D01*
X-712Y-2789D01*
X-831Y-2670D01*
D02*
G37*
%LPD*%
D10*
X-1042Y3436D02*
G03*
X-2774Y-2279I1042J-3436D01*
G01*
X-1274Y-2306D02*
X-1174Y-2206D01*
X-2744Y-2300D02*
X-1990D01*
X-1411Y-2310D02*
X-1270D01*
D11*
X0Y2343D02*
G03*
X-2179Y-860I0J-2343D01*
G01*
X2639Y-2748D02*
G03*
X3577Y-1312I-2639J2748D01*
G01*
X3004Y-2143D02*
G03*
X3466Y-1265I-3004J2143D01*
G01*
X2362Y2301D02*
X2611D01*
X1290Y702D02*
Y1438D01*
X2095Y2033D02*
X2362Y2301D01*
X1885Y2033D02*
X2095D01*
X1290Y1438D02*
X1885Y2033D01*
X1180Y1484D02*
X1980Y2284D01*
X1180Y656D02*
Y1484D01*
X1980Y2284D02*
Y2310D01*
X1700Y2159D02*
Y2520D01*
X1070Y610D02*
Y1529D01*
X1700Y2159D01*
X1590Y2205D02*
Y2750D01*
X960Y565D02*
Y1575D01*
X1590Y2205D01*
X1480Y2250D02*
Y3340D01*
X850Y519D02*
Y1620D01*
X1480Y2250D01*
X1370Y2296D02*
Y2684D01*
X732Y1658D02*
X1370Y2296D01*
X732Y1658D02*
X732D01*
X472Y1398D02*
X732Y1658D01*
X472Y1242D02*
Y1398D01*
X388Y1158D02*
X472Y1242D01*
X388Y-50D02*
Y1158D01*
X362Y1443D02*
X1099Y2181D01*
X278Y86D02*
Y1203D01*
X362Y1288D02*
Y1443D01*
X278Y1203D02*
X362Y1288D01*
X856Y3010D02*
X990D01*
X187Y2342D02*
X856Y3010D01*
X0Y2342D02*
X187D01*
X-123Y-1833D02*
X-123Y-1833D01*
X1290Y-547D02*
Y-350D01*
X958Y-878D02*
X1290Y-547D01*
X700Y-786D02*
Y-535D01*
X578Y-681D02*
Y-488D01*
Y-681D02*
X580Y-683D01*
X958Y-970D02*
Y-878D01*
X38Y186D02*
Y854D01*
X-82Y235D02*
Y818D01*
X-1030Y1690D02*
X-910Y1570D01*
X-897Y1393D02*
X-830Y1460D01*
X-1437Y1393D02*
X-897D01*
X-1440Y1390D02*
X-1437Y1393D01*
X-21Y-212D02*
X278Y86D01*
X-1550Y-183D02*
Y-109D01*
Y-183D02*
X-680Y-1053D01*
X-1103Y-408D02*
X-569Y-942D01*
X-381Y-63D02*
X-82Y235D01*
X-261Y-113D02*
X38Y186D01*
X-141Y-162D02*
X158Y136D01*
X-21Y-376D02*
Y-212D01*
X99Y-288D02*
X434Y47D01*
X838Y-694D02*
X896Y-636D01*
X-381Y-684D02*
X-346Y-719D01*
X-141Y-479D02*
X-123Y-496D01*
X-21Y-376D02*
X-12Y-385D01*
X-777Y95D02*
Y204D01*
X-1103Y-231D02*
X-777Y95D01*
X838Y-871D02*
Y-694D01*
X767Y-942D02*
X838Y-871D01*
X336Y-482D02*
Y-390D01*
X460Y-581D02*
Y-436D01*
X884Y-1044D02*
X958Y-970D01*
X656Y-830D02*
X700Y-786D01*
X-1103Y-408D02*
Y-231D01*
X545Y-719D02*
X580Y-683D01*
X-1124Y551D02*
X-777Y204D01*
X879Y-1044D02*
X884D01*
X879Y-1050D02*
X884Y-1044D01*
X322Y-496D02*
X336Y-482D01*
X433Y-608D02*
X460Y-581D01*
X-865Y1230D02*
X-740D01*
X-1103Y992D02*
X-865Y1230D01*
X-1124Y972D02*
X-1103Y992D01*
X-1124Y551D02*
Y972D01*
X-1550Y-109D02*
X-1312Y129D01*
X-1187D01*
X-2110Y-929D02*
X-1183D01*
X-2179Y-860D02*
X-2110Y-929D01*
X0Y2342D02*
Y2343D01*
X578Y-488D02*
X1155Y89D01*
X460Y-436D02*
X1043Y147D01*
X336Y-390D02*
X932Y206D01*
X-263Y-115D02*
X-261Y-113D01*
X-263Y-579D02*
Y-115D01*
Y-579D02*
X-235Y-608D01*
X-381Y-684D02*
Y-63D01*
X-830Y1460D02*
X-724D01*
X-82Y818D01*
X-910Y1570D02*
X-679D01*
X-581Y1472D01*
X-580D01*
X38Y854D01*
X158Y136D02*
Y1094D01*
X-419Y1671D02*
X158Y1094D01*
X1480Y3340D02*
X1560Y3420D01*
X1044Y3010D02*
X1370Y2684D01*
X1590Y2750D02*
X1760Y2920D01*
X1700Y2520D02*
X1823Y2643D01*
X1875D01*
X1882Y2650D01*
X2170D01*
X2290Y2770D01*
X700Y-535D02*
X1273Y37D01*
X-141Y-479D02*
Y-162D01*
X1273Y37D02*
Y564D01*
X1155Y89D02*
Y526D01*
X1043Y147D02*
Y482D01*
X932Y206D02*
Y437D01*
X850Y519D02*
X932Y437D01*
X960Y565D02*
X1043Y482D01*
X1070Y610D02*
X1155Y526D01*
X1180Y656D02*
X1273Y564D01*
X2809Y-421D02*
Y-336D01*
X3036Y-110D01*
X3009Y-731D02*
Y-565D01*
X3150Y-424D01*
X1290Y702D02*
X1382Y609D01*
Y-33D02*
Y609D01*
Y-33D02*
X1490Y-140D01*
Y-532D02*
Y-140D01*
X1310Y-1057D02*
Y-712D01*
Y-1057D02*
X1353Y-1100D01*
X1310Y-712D02*
X1490Y-532D01*
X2226Y-2748D02*
Y-2744D01*
Y-2748D02*
X2639D01*
X2100Y-2140D02*
X2103Y-2143D01*
X3004D01*
X4200Y-1230D02*
X4330Y-1100D01*
X5860Y-560D02*
Y-400D01*
X5510Y-50D02*
X5860Y-400D01*
X5470Y-50D02*
X5510D01*
X4000Y-870D02*
X4070Y-940D01*
X4000Y-870D02*
X4100D01*
X5470Y450D02*
X5860Y60D01*
Y-30D02*
Y60D01*
X4030Y-510D02*
X4160Y-380D01*
X4800D02*
X4970Y-550D01*
X3795Y-510D02*
X4030D01*
X3464Y-390D02*
Y-310D01*
X3199Y-1041D02*
X3249Y-991D01*
Y-605D01*
X3464Y-390D01*
X3690Y-745D02*
Y-615D01*
X3510Y-925D02*
X3690Y-745D01*
X3657Y-1230D02*
X4200D01*
X3625Y-965D02*
X3720Y-870D01*
X4000D01*
X3690Y-615D02*
X3795Y-510D01*
X3510Y-1020D02*
Y-925D01*
X3465Y-1265D02*
X3620Y-1110D01*
X3580Y-1306D02*
X3657Y-1230D01*
X3620Y-970D02*
X3625Y-965D01*
X3620Y-1110D02*
Y-970D01*
X2850Y-1680D02*
X3510Y-1020D01*
X4160Y-380D02*
X4800D01*
X3480Y800D02*
X4620D01*
X4970Y450D01*
X1040Y-1164D02*
X1289D01*
X1353Y-1100D01*
D12*
X-1109Y-2321D02*
D03*
X-831Y-2599D02*
D03*
X-416Y-2619D02*
D03*
X-694Y-2341D02*
D03*
X-169Y-2381D02*
D03*
X109Y-2659D02*
D03*
X-1550Y-109D02*
D03*
X-1829Y170D02*
D03*
X-747Y1223D02*
D03*
X-468Y945D02*
D03*
X-1183Y-929D02*
D03*
X-1461Y-650D02*
D03*
X731Y2549D02*
D03*
X1009Y2271D02*
D03*
D13*
X2731Y-1009D02*
D03*
X3009Y-731D02*
D03*
X2531Y-699D02*
D03*
X2809Y-421D02*
D03*
X2921Y-1319D02*
D03*
X3199Y-1041D02*
D03*
D14*
X2100Y-2140D02*
D03*
X2360Y-220D02*
D03*
X-640Y-3500D02*
D03*
X-1440Y1390D02*
D03*
X-1030Y1690D02*
D03*
X1560Y3420D02*
D03*
X2290Y2770D02*
D03*
X1760Y2920D02*
D03*
X1980Y2310D02*
D03*
X1200Y-430D02*
D03*
X1890Y-500D02*
D03*
X2240Y-2730D02*
D03*
D15*
X-576Y12D02*
D03*
X-855Y-266D02*
D03*
X415Y-33D02*
D03*
X693Y245D02*
D03*
X-231Y2039D02*
D03*
X-509Y1761D02*
D03*
D16*
X1353Y-1100D02*
D03*
X1747Y-1100D02*
D03*
D17*
X5470Y500D02*
D03*
Y0D02*
D03*
Y-500D02*
D03*
X4970D02*
D03*
Y0D02*
D03*
Y500D02*
D03*
D18*
X-108Y1432D02*
D03*
X588Y2128D02*
D03*
D19*
X-714Y603D02*
D03*
X-1103Y992D02*
D03*
X-1187Y129D02*
D03*
X-1577Y519D02*
D03*
D20*
X879Y-1276D02*
D03*
X767Y-1387D02*
D03*
X656Y-1499D02*
D03*
X545Y-1610D02*
D03*
X433Y-1721D02*
D03*
X322Y-1833D02*
D03*
X211Y-1944D02*
D03*
X879Y-1053D02*
D03*
X767Y-1164D02*
D03*
X656Y-1276D02*
D03*
X545Y-1387D02*
D03*
X433Y-1499D02*
D03*
X322Y-1610D02*
D03*
X211Y-1721D02*
D03*
X99Y-1833D02*
D03*
X-12Y-1944D02*
D03*
X767Y-942D02*
D03*
X656Y-1053D02*
D03*
X545Y-1164D02*
D03*
X433Y-1276D02*
D03*
X322Y-1387D02*
D03*
X211Y-1499D02*
D03*
X99Y-1610D02*
D03*
X-12Y-1721D02*
D03*
X-123Y-1833D02*
D03*
X656Y-830D02*
D03*
X545Y-942D02*
D03*
X433Y-1053D02*
D03*
X-12Y-1499D02*
D03*
X-123Y-1610D02*
D03*
X-235Y-1721D02*
D03*
X545Y-719D02*
D03*
X433Y-830D02*
D03*
X322Y-942D02*
D03*
X-123Y-1387D02*
D03*
X-235Y-1499D02*
D03*
X-346Y-1610D02*
D03*
X433Y-608D02*
D03*
X322Y-719D02*
D03*
X211Y-830D02*
D03*
X-457Y-1499D02*
D03*
X322Y-496D02*
D03*
X211Y-608D02*
D03*
X99Y-719D02*
D03*
X-12Y-830D02*
D03*
X-123Y-942D02*
D03*
X-569Y-1387D02*
D03*
X211Y-385D02*
D03*
X99Y-496D02*
D03*
X-12Y-608D02*
D03*
X-123Y-719D02*
D03*
X-235Y-830D02*
D03*
X-346Y-942D02*
D03*
X-680Y-1276D02*
D03*
X-12Y-385D02*
D03*
X-123Y-496D02*
D03*
X-235Y-608D02*
D03*
X-346Y-719D02*
D03*
X-457Y-830D02*
D03*
X-569Y-942D02*
D03*
X-680Y-1053D02*
D03*
X-792Y-1164D02*
D03*
D21*
X3464Y-310D02*
D03*
X3350Y4D02*
D03*
X3036Y-110D02*
D03*
X3150Y-424D02*
D03*
D22*
X-1513Y-2300D02*
D03*
X-1887D02*
D03*
D23*
X-750Y-1568D02*
D03*
X-638Y-1679D02*
D03*
X-1028Y-1846D02*
D03*
X-777Y-1818D02*
D03*
X-917Y-1957D02*
D03*
D24*
X2323Y1664D02*
D03*
X1620Y1408D02*
D03*
X2720Y572D02*
D03*
X2017Y316D02*
D03*
D25*
X1864Y-3193D02*
D03*
X1608Y-2490D02*
D03*
X772Y-3590D02*
D03*
X516Y-2887D02*
D03*
D26*
X3110Y990D02*
X3431Y730D01*
X2801Y1107D02*
X3110Y990D01*
X2611Y1700D02*
X2801Y1107D01*
X2611Y1700D02*
Y2301D01*
X-1183Y-929D02*
X-1027D01*
X-792Y-1164D01*
X-714Y700D02*
X-468Y945D01*
X-1829Y170D02*
X-1577Y422D01*
X-855Y-433D02*
Y-266D01*
Y-433D02*
X-457Y-830D01*
X1747Y-1100D02*
Y-1057D01*
X1510Y-820D02*
X1747Y-1057D01*
X3350Y4D02*
X3451Y-96D01*
X3350Y599D02*
X3401Y650D01*
X3332Y730D02*
X3431D01*
X693Y527D02*
X710Y510D01*
X650Y288D02*
X693Y245D01*
X650Y288D02*
Y570D01*
X3451Y-690D02*
Y-639D01*
X3678Y-412D01*
X3451Y-96D02*
X3559D01*
X3610Y-148D02*
X3678Y-320D01*
Y-412D02*
Y-320D01*
X3559Y-96D02*
X3610Y-148D01*
D27*
X-520Y-2970D02*
Y-2910D01*
X-831Y-2599D02*
X-520Y-2910D01*
X-165Y-2879D02*
X-111D01*
X109Y-2659D01*
D28*
X-123Y-1833D02*
Y-1833D01*
Y-2092D02*
Y-1833D01*
Y-2092D02*
X342Y-2557D01*
X99Y-1990D02*
Y-1833D01*
Y-1990D02*
X164Y-2054D01*
X211Y-830D02*
Y-608D01*
X99Y-496D02*
Y-288D01*
X1607Y-627D02*
Y-109D01*
X1488Y11D02*
X1607Y-109D01*
X767Y-1164D02*
X1040D01*
X2400Y-830D02*
X2531Y-699D01*
X2400Y-1221D02*
Y-830D01*
X2585Y-1319D02*
X2921D01*
X2731Y-1032D02*
Y-1009D01*
X1995Y-1202D02*
Y-1015D01*
X1607Y-627D02*
X1995Y-1015D01*
X2095Y-1244D02*
Y-974D01*
X1890Y-769D02*
X2095Y-974D01*
X1890Y-769D02*
Y-500D01*
X2195Y-1285D02*
Y-385D01*
X2360Y-220D01*
X516Y-2887D02*
Y-2586D01*
X-12Y-2058D02*
Y-2020D01*
Y-1944D01*
X275Y-2345D02*
X1463D01*
X1608Y-2490D01*
X-12Y-2058D02*
X275Y-2345D01*
X516Y-2586D01*
X2200Y-2730D02*
X2240D01*
X1752Y-2140D02*
X2100D01*
X274Y-2770D02*
X342Y-2703D01*
Y-2557D01*
X-640Y-3500D02*
X-260D01*
X274Y-2966D01*
Y-2770D01*
X1395Y1183D02*
X1620Y1408D01*
X1395Y745D02*
X1488Y653D01*
X1395Y745D02*
Y1183D01*
X1644Y316D02*
X2017D01*
X1488Y160D02*
X1644Y316D01*
X1488Y11D02*
Y160D01*
Y653D01*
X3816Y-155D02*
X4245D01*
X3468Y193D02*
X3816Y-155D01*
X2743Y193D02*
X3468D01*
X2360Y-190D02*
X2743Y193D01*
X2360Y-220D02*
Y-190D01*
X3510Y293D02*
X3608Y195D01*
X4345D01*
X4590Y-50D01*
X4970D01*
X2702Y293D02*
X3510D01*
X2569Y161D02*
X2702Y293D01*
X1890Y-190D02*
X2241Y161D01*
X2569D01*
X1890Y-500D02*
Y-190D01*
X5240Y-730D02*
X5470Y-500D01*
X4410Y-730D02*
X5240D01*
X4340Y-660D02*
X4410Y-730D01*
X164Y-2054D02*
X1525D01*
X2200Y-2730D01*
X211Y-1944D02*
X1556D01*
X1752Y-2140D01*
X879Y-1276D02*
X1921D01*
X1995Y-1202D01*
X767Y-1387D02*
X1951D01*
X2095Y-1244D01*
X656Y-1499D02*
X1981D01*
X2195Y-1285D01*
X545Y-1610D02*
X2011D01*
X2400Y-1221D01*
X433Y-1721D02*
X2042D01*
X2731Y-1032D01*
X322Y-1833D02*
X2072D01*
X2585Y-1319D01*
D29*
X1490Y-860D02*
X1510Y-840D01*
X-714Y603D02*
X-481Y370D01*
X-360D01*
X-444Y-1707D02*
X-346Y-1610D01*
X-444Y-2091D02*
Y-1707D01*
X-694Y-2341D02*
X-444Y-2091D01*
X-777Y-1818D02*
X-694Y-1902D01*
Y-2341D02*
Y-1902D01*
X-787Y-1383D02*
X-346Y-942D01*
X-941Y-1383D02*
X-787D01*
X-639Y-1680D02*
X-457Y-1499D01*
X-1174Y-2206D02*
X-918Y-1957D01*
X-1200Y-1675D02*
X-1029Y-1846D01*
X-749Y-1568D02*
X-569Y-1387D01*
X-297Y-2253D02*
Y-1783D01*
Y-2253D02*
X-165Y-2385D01*
X-297Y-1783D02*
X-235Y-1721D01*
X51Y-1100D02*
X121Y-1030D01*
X-188Y-1100D02*
X51D01*
X-346Y-942D02*
X-188Y-1100D01*
X121Y-920D02*
X208Y-833D01*
X154Y-1064D02*
X188Y-1030D01*
X154Y-1064D02*
X255Y-1164D01*
X305Y-1214D01*
X372D02*
X433Y-1276D01*
X305Y-1214D02*
X372D01*
X121Y-1030D02*
X188D01*
X121D02*
Y-920D01*
D30*
X156Y-1667D02*
X211Y-1721D01*
X156Y-1263D02*
X255Y-1164D01*
X156Y-1667D02*
Y-1263D01*
D31*
X3800Y-1050D02*
D03*
X3810Y980D02*
D03*
X3940Y20D02*
D03*
X3920Y-330D02*
D03*
X3870Y-690D02*
D03*
X3920Y370D02*
D03*
X3890Y620D02*
D03*
X3740Y1230D02*
D03*
D32*
X3089Y1670D02*
D03*
D33*
X3431Y730D02*
D03*
D34*
X4820Y-1000D02*
D03*
X5620D02*
D03*
X5220Y1000D02*
D03*
D35*
X-280Y-3230D02*
D03*
X1510Y-820D02*
D03*
X-1770Y870D02*
D03*
X902Y-650D02*
D03*
X-380Y230D02*
D03*
X-165Y-2879D02*
D03*
X-941Y-1383D02*
D03*
X126Y-1033D02*
D03*
X-290Y460D02*
D03*
X255Y-1164D02*
D03*
X-1770Y-470D02*
D03*
X-2060Y-110D02*
D03*
X-1200Y-1675D02*
D03*
X650Y570D02*
D03*
X230Y1760D02*
D03*
X-710Y2020D02*
D03*
X1060Y2710D02*
D03*
X990Y3010D02*
D03*
X2620Y2310D02*
D03*
X660Y-3240D02*
D03*
X1760Y-2830D02*
D03*
X1930Y1470D02*
D03*
X2260Y1760D02*
D03*
X5860Y-560D02*
D03*
X4330Y-1100D02*
D03*
X5860Y-30D02*
D03*
X4320Y-640D02*
D03*
X4070Y-940D02*
D03*
X3451Y-690D02*
D03*
X-840Y-3080D02*
D03*
X4245Y-155D02*
D03*
X2360Y420D02*
D03*
X2720Y-1920D02*
D03*
M02*
