%FSLAX24Y24*%
%MOIN*%
G70*
G01*
G75*
G04 Layer_Physical_Order=2*
G04 Layer_Color=16711680*
%ADD10C,0.0500*%
%ADD11C,0.0060*%
G04:AMPARAMS|DCode=12|XSize=19.7mil|YSize=23.6mil|CornerRadius=0mil|HoleSize=0mil|Usage=FLASHONLY|Rotation=225.000|XOffset=0mil|YOffset=0mil|HoleType=Round|Shape=Rectangle|*
%AMROTATEDRECTD12*
4,1,4,-0.0014,0.0153,0.0153,-0.0014,0.0014,-0.0153,-0.0153,0.0014,-0.0014,0.0153,0.0*
%
%ADD12ROTATEDRECTD12*%

G04:AMPARAMS|DCode=13|XSize=21.7mil|YSize=23.6mil|CornerRadius=0mil|HoleSize=0mil|Usage=FLASHONLY|Rotation=135.000|XOffset=0mil|YOffset=0mil|HoleType=Round|Shape=Rectangle|*
%AMROTATEDRECTD13*
4,1,4,0.0160,0.0007,-0.0007,-0.0160,-0.0160,-0.0007,0.0007,0.0160,0.0160,0.0007,0.0*
%
%ADD13ROTATEDRECTD13*%

%ADD14C,0.0394*%
G04:AMPARAMS|DCode=15|XSize=19.7mil|YSize=23.6mil|CornerRadius=0mil|HoleSize=0mil|Usage=FLASHONLY|Rotation=135.000|XOffset=0mil|YOffset=0mil|HoleType=Round|Shape=Rectangle|*
%AMROTATEDRECTD15*
4,1,4,0.0153,0.0014,-0.0014,-0.0153,-0.0153,-0.0014,0.0014,0.0153,0.0153,0.0014,0.0*
%
%ADD15ROTATEDRECTD15*%

%ADD16R,0.0236X0.0197*%
%ADD17C,0.0310*%
G04:AMPARAMS|DCode=18|XSize=39.4mil|YSize=70.9mil|CornerRadius=0mil|HoleSize=0mil|Usage=FLASHONLY|Rotation=45.000|XOffset=0mil|YOffset=0mil|HoleType=Round|Shape=Rectangle|*
%AMROTATEDRECTD18*
4,1,4,0.0111,-0.0390,-0.0390,0.0111,-0.0111,0.0390,0.0390,-0.0111,0.0111,-0.0390,0.0*
%
%ADD18ROTATEDRECTD18*%

G04:AMPARAMS|DCode=19|XSize=47.2mil|YSize=43.3mil|CornerRadius=0mil|HoleSize=0mil|Usage=FLASHONLY|Rotation=45.000|XOffset=0mil|YOffset=0mil|HoleType=Round|Shape=Rectangle|*
%AMROTATEDRECTD19*
4,1,4,-0.0014,-0.0320,-0.0320,-0.0014,0.0014,0.0320,0.0320,0.0014,-0.0014,-0.0320,0.0*
%
%ADD19ROTATEDRECTD19*%

%ADD20C,0.0071*%
%ADD21P,0.0251X4X65.0*%
%ADD22R,0.0256X0.0197*%
%ADD23C,0.0087*%
G04:AMPARAMS|DCode=24|XSize=25.6mil|YSize=27.6mil|CornerRadius=0mil|HoleSize=0mil|Usage=FLASHONLY|Rotation=110.000|XOffset=0mil|YOffset=0mil|HoleType=Round|Shape=Rectangle|*
%AMROTATEDRECTD24*
4,1,4,0.0173,-0.0073,-0.0086,-0.0167,-0.0173,0.0073,0.0086,0.0167,0.0173,-0.0073,0.0*
%
%ADD24ROTATEDRECTD24*%

G04:AMPARAMS|DCode=25|XSize=25.6mil|YSize=27.6mil|CornerRadius=0mil|HoleSize=0mil|Usage=FLASHONLY|Rotation=20.000|XOffset=0mil|YOffset=0mil|HoleType=Round|Shape=Rectangle|*
%AMROTATEDRECTD25*
4,1,4,-0.0073,-0.0173,-0.0167,0.0086,0.0073,0.0173,0.0167,-0.0086,-0.0073,-0.0173,0.0*
%
%ADD25ROTATEDRECTD25*%

%ADD26C,0.0100*%
%ADD27C,0.0150*%
%ADD28C,0.0050*%
%ADD29C,0.0080*%
%ADD30C,0.0090*%
%ADD31C,0.0200*%
%ADD32P,0.0835X4X335.0*%
%ADD33C,0.0591*%
%ADD34C,0.0390*%
%ADD35C,0.0240*%
%ADD36C,0.0100*%
%ADD37P,0.1771X4X290.0*%
G36*
X2346Y3024D02*
X2439Y2949D01*
X2531Y2871D01*
X2620Y2790D01*
X2706Y2706D01*
X2790Y2620D01*
X2871Y2531D01*
X2949Y2439D01*
X3024Y2346D01*
X3096Y2249D01*
X3160Y2159D01*
X3145Y2111D01*
X3001Y2058D01*
X3136Y1687D01*
X3271Y1316D01*
X3554Y1419D01*
X3558Y1409D01*
X3589Y1328D01*
X3584Y1320D01*
X3573Y1299D01*
X3566Y1277D01*
X3561Y1254D01*
X3560Y1230D01*
X3561Y1206D01*
X3566Y1183D01*
X3573Y1161D01*
X3584Y1140D01*
X3597Y1120D01*
X3556Y1084D01*
X3556Y1085D01*
X3520Y1095D01*
X3484Y1102D01*
X3447Y1106D01*
X3411Y1105D01*
X3374Y1102D01*
X3338Y1094D01*
X3302Y1083D01*
X3269Y1069D01*
X3236Y1051D01*
X3206Y1031D01*
X3177Y1007D01*
X3151Y981D01*
X3128Y952D01*
X3108Y922D01*
X3090Y889D01*
X3077Y855D01*
X3066Y819D01*
X3059Y783D01*
X3056Y747D01*
X3056Y710D01*
X3060Y673D01*
X3067Y637D01*
X3078Y602D01*
X3092Y568D01*
X3110Y535D01*
X3130Y505D01*
X3154Y476D01*
X3180Y450D01*
X3209Y427D01*
X3240Y407D01*
X3272Y390D01*
X3306Y376D01*
X3342Y365D01*
X3378Y358D01*
X3415Y355D01*
X3451Y355D01*
X3488Y359D01*
X3524Y366D01*
X3542Y372D01*
X3583Y344D01*
X3592Y235D01*
X3598Y118D01*
X3600Y0D01*
X3598Y-118D01*
X3592Y-235D01*
X3583Y-353D01*
X3569Y-470D01*
X3568Y-478D01*
X3525Y-504D01*
X3503Y-496D01*
X3477Y-491D01*
X3451Y-490D01*
X3425Y-491D01*
X3399Y-496D01*
X3374Y-505D01*
X3351Y-516D01*
X3329Y-531D01*
X3309Y-548D01*
X3292Y-568D01*
X3277Y-590D01*
X3266Y-613D01*
X3257Y-638D01*
X3252Y-664D01*
X3250Y-690D01*
X3252Y-716D01*
X3257Y-742D01*
X3266Y-767D01*
X3277Y-790D01*
X3292Y-812D01*
X3309Y-832D01*
X3329Y-849D01*
X3351Y-864D01*
X3374Y-875D01*
X3399Y-884D01*
X3425Y-889D01*
X3448Y-890D01*
X3478Y-931D01*
X3477Y-932D01*
X3445Y-1045D01*
X3409Y-1157D01*
X3369Y-1268D01*
X3326Y-1378D01*
X3279Y-1486D01*
X3229Y-1592D01*
X3175Y-1697D01*
X3118Y-1800D01*
X3057Y-1901D01*
X2993Y-2000D01*
X2926Y-2097D01*
X2856Y-2192D01*
X2783Y-2284D01*
X2707Y-2374D01*
X2627Y-2461D01*
X2546Y-2546D01*
X2461Y-2627D01*
X2374Y-2707D01*
X2284Y-2783D01*
X2192Y-2856D01*
X2097Y-2926D01*
X2000Y-2993D01*
X1901Y-3057D01*
X1800Y-3118D01*
X1697Y-3175D01*
X1592Y-3229D01*
X1486Y-3279D01*
X1378Y-3326D01*
X1268Y-3369D01*
X1157Y-3409D01*
X1045Y-3445D01*
X932Y-3477D01*
X817Y-3506D01*
X702Y-3531D01*
X586Y-3552D01*
X470Y-3569D01*
X353Y-3583D01*
X235Y-3592D01*
X118Y-3598D01*
X0Y-3600D01*
X-118Y-3598D01*
X-235Y-3592D01*
X-353Y-3583D01*
X-470Y-3569D01*
X-586Y-3552D01*
X-702Y-3531D01*
X-813Y-3507D01*
X-835Y-3462D01*
X-729Y-3234D01*
X-1297Y-2969D01*
X-1306Y-2919D01*
X-828Y-2442D01*
X-1350Y-1920D01*
X-1350D01*
X-1360Y-1920D01*
X-1363Y-1917D01*
D01*
X-1363Y-1917D01*
X-1363Y-1917D01*
X-1363Y-1917D01*
X-1363Y-1917D01*
D01*
X-1364Y-1915D01*
X-1376Y-1905D01*
X-1376D01*
X-1376Y-1905D01*
X-1376Y-1905D01*
X-1382Y-1902D01*
X-1455Y-1846D01*
X-1527Y-1787D01*
X-1596Y-1726D01*
X-1662Y-1662D01*
X-1726Y-1596D01*
X-1787Y-1527D01*
X-1846Y-1455D01*
X-1902Y-1382D01*
X-1954Y-1306D01*
X-2004Y-1228D01*
X-2051Y-1149D01*
X-2094Y-1067D01*
X-2135Y-984D01*
X-2172Y-900D01*
X-2205Y-814D01*
X-2236Y-726D01*
X-2262Y-638D01*
X-2286Y-549D01*
X-2305Y-459D01*
X-2322Y-368D01*
X-2334Y-276D01*
X-2343Y-184D01*
X-2349Y-92D01*
X-2351Y0D01*
X-2349Y92D01*
X-2343Y184D01*
X-2334Y276D01*
X-2322Y368D01*
X-2305Y459D01*
X-2286Y549D01*
X-2262Y638D01*
X-2236Y726D01*
X-2205Y814D01*
X-2172Y900D01*
X-2135Y984D01*
X-2094Y1067D01*
X-2051Y1149D01*
X-2004Y1228D01*
X-1954Y1306D01*
X-1902Y1382D01*
X-1846Y1455D01*
X-1787Y1527D01*
X-1726Y1596D01*
X-1662Y1662D01*
X-1596Y1726D01*
X-1527Y1787D01*
X-1455Y1846D01*
X-1382Y1902D01*
X-1306Y1954D01*
X-1228Y2004D01*
X-1149Y2051D01*
X-1067Y2094D01*
X-984Y2135D01*
X-900Y2172D01*
X-814Y2205D01*
X-726Y2236D01*
X-638Y2262D01*
X-549Y2286D01*
X-459Y2305D01*
X-368Y2322D01*
X-276Y2334D01*
X-184Y2343D01*
X-92Y2349D01*
X-0Y2351D01*
X0Y2350D01*
Y2350D01*
X17Y2352D01*
X34Y2356D01*
X45Y2360D01*
X414Y2360D01*
X748Y3074D01*
X796Y3058D01*
X791Y3036D01*
X790Y3010D01*
X791Y2984D01*
X796Y2958D01*
X805Y2933D01*
X816Y2910D01*
X831Y2888D01*
X848Y2868D01*
X868Y2851D01*
X890Y2836D01*
X913Y2825D01*
X938Y2816D01*
X964Y2811D01*
X990Y2810D01*
X1016Y2811D01*
X1042Y2816D01*
X1067Y2825D01*
X1090Y2836D01*
X1112Y2851D01*
X1132Y2868D01*
X1149Y2888D01*
X1164Y2910D01*
X1175Y2933D01*
X1184Y2958D01*
X1187Y2977D01*
X1200Y2983D01*
X1277Y2978D01*
X2009Y2637D01*
X2022Y2666D01*
X2071Y2674D01*
X2421Y2325D01*
X2420Y2310D01*
X2421Y2284D01*
X2426Y2258D01*
X2435Y2233D01*
X2446Y2210D01*
X2461Y2188D01*
X2478Y2168D01*
X2498Y2151D01*
X2520Y2136D01*
X2543Y2125D01*
X2568Y2116D01*
X2594Y2111D01*
X2620Y2110D01*
X2646Y2111D01*
X2672Y2116D01*
X2697Y2125D01*
X2720Y2136D01*
X2742Y2151D01*
X2762Y2168D01*
X2779Y2188D01*
X2794Y2210D01*
X2805Y2233D01*
X2814Y2258D01*
X2819Y2284D01*
X2820Y2310D01*
X2819Y2336D01*
X2814Y2362D01*
X2805Y2387D01*
X2794Y2410D01*
X2779Y2432D01*
X2762Y2452D01*
X2742Y2469D01*
X2720Y2484D01*
X2697Y2495D01*
X2672Y2504D01*
X2646Y2509D01*
X2620Y2510D01*
X2605Y2509D01*
X2158Y2957D01*
X2213Y3075D01*
X2261Y3087D01*
X2346Y3024D01*
D02*
G37*
%LPC*%
G36*
X3059Y1606D02*
X2735Y1488D01*
X2853Y1163D01*
X3177Y1281D01*
X3059Y1606D01*
D02*
G37*
G36*
X2907Y2024D02*
X2582Y1906D01*
X2700Y1582D01*
X3025Y1700D01*
X2907Y2024D01*
D02*
G37*
%LPD*%
D11*
X990Y3010D02*
X1555Y3575D01*
X1667D01*
X4070Y-940D02*
X4110Y-900D01*
X4870Y-560D02*
X5860D01*
X4824Y-450D02*
X5440D01*
X5860Y-30D01*
X4110Y-900D02*
X4374D01*
X4330Y-1100D02*
X4870Y-560D01*
X4374Y-900D02*
X4824Y-450D01*
X4320Y-640D02*
Y-240D01*
D26*
X1667Y3575D02*
G03*
X1888Y3042I754J0D01*
G01*
X-1648Y-3346D02*
G03*
X3666Y-689I1648J3346D01*
G01*
D02*
G03*
X3643Y801I-3666J689D01*
G01*
X1888Y3042D02*
X2620Y2310D01*
X3451Y-690D02*
X3665D01*
X3666Y-689D01*
D31*
X3800Y-1050D02*
D03*
X3810Y980D02*
D03*
X3940Y20D02*
D03*
X3920Y-330D02*
D03*
X3870Y-690D02*
D03*
X3920Y370D02*
D03*
X3890Y620D02*
D03*
X3740Y1230D02*
D03*
D32*
X3089Y1670D02*
D03*
D33*
X3431Y730D02*
D03*
D34*
X4820Y-1000D02*
D03*
X5620D02*
D03*
X5220Y1000D02*
D03*
D35*
X-280Y-3230D02*
D03*
X1510Y-820D02*
D03*
X-1770Y870D02*
D03*
X902Y-650D02*
D03*
X-380Y230D02*
D03*
X-165Y-2879D02*
D03*
X-941Y-1383D02*
D03*
X126Y-1033D02*
D03*
X-290Y460D02*
D03*
X255Y-1164D02*
D03*
X-1770Y-470D02*
D03*
X-2060Y-110D02*
D03*
X-1200Y-1675D02*
D03*
X650Y570D02*
D03*
X230Y1760D02*
D03*
X-710Y2020D02*
D03*
X1060Y2710D02*
D03*
X990Y3010D02*
D03*
X2620Y2310D02*
D03*
X660Y-3240D02*
D03*
X1760Y-2830D02*
D03*
X1930Y1470D02*
D03*
X2260Y1760D02*
D03*
X5860Y-560D02*
D03*
X4330Y-1100D02*
D03*
X5860Y-30D02*
D03*
X4320Y-640D02*
D03*
X4070Y-940D02*
D03*
X3451Y-690D02*
D03*
X-840Y-3080D02*
D03*
X4245Y-155D02*
D03*
X2360Y420D02*
D03*
X2720Y-1920D02*
D03*
D36*
X1888Y3042D02*
D03*
D37*
X1667Y3575D02*
D03*
X-1667Y-3575D02*
D03*
M02*
